<svg xmlns="http://www.w3.org/2000/svg" xmlns:xlink="http://www.w3.org/1999/xlink" width="414" height="736" viewBox="0 0 414 736">
  <defs>
    <filter id="Courses" x="307" y="690" width="81" height="42" filterUnits="userSpaceOnUse">
      <feOffset dy="3" input="SourceAlpha"/>
      <feGaussianBlur stdDeviation="3" result="blur"/>
      <feFlood flood-opacity="0.271"/>
      <feComposite operator="in" in2="blur"/>
      <feComposite in="SourceGraphic"/>
    </filter>
    <clipPath id="clip-Courses-2">
      <rect width="414" height="736"/>
    </clipPath>
  </defs>
  <g id="Courses-2" data-name="Courses" clip-path="url(#clip-Courses-2)">
    <rect width="414" height="736" fill="#fff"/>
    <g id="Rectangle_1" data-name="Rectangle 1" transform="translate(0 15)" fill="#fff" stroke="#707070" stroke-width="1">
      <rect width="414" height="60" stroke="none"/>
      <rect x="0.5" y="0.5" width="413" height="59" fill="none"/>
    </g>
    <g id="Rectangle_2" data-name="Rectangle 2" fill="#fff" stroke="#707070" stroke-width="1">
      <rect width="414" height="15" stroke="none"/>
      <rect x="0.5" y="0.5" width="413" height="14" fill="none"/>
    </g>
    <text id="Courses-3" data-name="Courses" transform="translate(22 54)" fill="#707070" font-size="20" font-family="SegoeUI, Segoe UI"><tspan x="0" y="0">Courses</tspan></text>
    <text id="Add" transform="translate(347 51)" fill="#707070" font-size="16" font-family="SegoeUI, Segoe UI"><tspan x="0" y="0">Add</tspan></text>
    <g id="Rectangle_3" data-name="Rectangle 3" transform="translate(0 675)" fill="#fff" stroke="#707070" stroke-width="1">
      <rect width="414" height="61" stroke="none"/>
      <rect x="0.5" y="0.5" width="413" height="60" fill="none"/>
    </g>
    <text id="Terms" transform="translate(46 715)" fill="#707070" font-size="18" font-family="SegoeUI, Segoe UI"><tspan x="0" y="0">Terms</tspan></text>
    <text id="Instructors" transform="translate(162 715)" fill="#707070" font-size="18" font-family="SegoeUI, Segoe UI"><tspan x="0" y="0">Instructors</tspan></text>
    <g transform="matrix(1, 0, 0, 1, 0, 0)" filter="url(#Courses)">
      <text id="Courses-4" data-name="Courses" transform="translate(316 715)" fill="#707070" font-size="18" font-family="SegoeUI, Segoe UI"><tspan x="0" y="0">Courses</tspan></text>
    </g>
    <g id="Rectangle_4" data-name="Rectangle 4" transform="translate(0 74)" fill="#fff" stroke="#707070" stroke-width="1">
      <rect width="414" height="56" stroke="none"/>
      <rect x="0.5" y="0.5" width="413" height="55" fill="none"/>
    </g>
    <text id="Id" transform="translate(33 109)" fill="#707070" font-size="18" font-family="SegoeUI, Segoe UI"><tspan x="0" y="0">Id</tspan></text>
    <text id="Course_Name" data-name="Course Name" transform="translate(153 109)" fill="#707070" font-size="18" font-family="SegoeUI, Segoe UI"><tspan x="0" y="0">Course Name</tspan></text>
    <g id="Rectangle_6" data-name="Rectangle 6" transform="translate(0 130)" fill="#fff" stroke="#707070" stroke-width="1">
      <rect width="414" height="56" stroke="none"/>
      <rect x="0.5" y="0.5" width="413" height="55" fill="none"/>
    </g>
    <text id="Id-2" data-name="Id" transform="translate(33 165)" fill="#707070" font-size="18" font-family="SegoeUI, Segoe UI"><tspan x="0" y="0">Id</tspan></text>
    <text id="Course_Name-2" data-name="Course Name" transform="translate(153 165)" fill="#707070" font-size="18" font-family="SegoeUI, Segoe UI"><tspan x="0" y="0">Course Name</tspan></text>
    <g id="Rectangle_7" data-name="Rectangle 7" transform="translate(0 186)" fill="#fff" stroke="#707070" stroke-width="1">
      <rect width="414" height="56" stroke="none"/>
      <rect x="0.5" y="0.5" width="413" height="55" fill="none"/>
    </g>
    <text id="Id-3" data-name="Id" transform="translate(33 221)" fill="#707070" font-size="18" font-family="SegoeUI, Segoe UI"><tspan x="0" y="0">Id</tspan></text>
    <text id="Course_Name-3" data-name="Course Name" transform="translate(153 221)" fill="#707070" font-size="18" font-family="SegoeUI, Segoe UI"><tspan x="0" y="0">Course Name</tspan></text>
    <g id="Rectangle_8" data-name="Rectangle 8" transform="translate(0 242)" fill="#fff" stroke="#707070" stroke-width="1">
      <rect width="414" height="56" stroke="none"/>
      <rect x="0.5" y="0.5" width="413" height="55" fill="none"/>
    </g>
    <text id="Id-4" data-name="Id" transform="translate(33 277)" fill="#707070" font-size="18" font-family="SegoeUI, Segoe UI"><tspan x="0" y="0">Id</tspan></text>
    <text id="Course_Name-4" data-name="Course Name" transform="translate(153 277)" fill="#707070" font-size="18" font-family="SegoeUI, Segoe UI"><tspan x="0" y="0">Course Name</tspan></text>
    <g id="Rectangle_9" data-name="Rectangle 9" transform="translate(0 298)" fill="#fff" stroke="#707070" stroke-width="1">
      <rect width="414" height="56" stroke="none"/>
      <rect x="0.5" y="0.5" width="413" height="55" fill="none"/>
    </g>
    <text id="Id-5" data-name="Id" transform="translate(33 333)" fill="#707070" font-size="18" font-family="SegoeUI, Segoe UI"><tspan x="0" y="0">Id</tspan></text>
    <text id="Course_Name-5" data-name="Course Name" transform="translate(153 333)" fill="#707070" font-size="18" font-family="SegoeUI, Segoe UI"><tspan x="0" y="0">Course Name</tspan></text>
    <g id="Rectangle_10" data-name="Rectangle 10" transform="translate(0 354)" fill="#fff" stroke="#707070" stroke-width="1">
      <rect width="414" height="56" stroke="none"/>
      <rect x="0.5" y="0.5" width="413" height="55" fill="none"/>
    </g>
    <text id="Id-6" data-name="Id" transform="translate(33 389)" fill="#707070" font-size="18" font-family="SegoeUI, Segoe UI"><tspan x="0" y="0">Id</tspan></text>
    <text id="Course_Name-6" data-name="Course Name" transform="translate(153 389)" fill="#707070" font-size="18" font-family="SegoeUI, Segoe UI"><tspan x="0" y="0">Course Name</tspan></text>
  </g>
</svg>
