<svg xmlns="http://www.w3.org/2000/svg" xmlns:xlink="http://www.w3.org/1999/xlink" width="414" height="736" viewBox="0 0 414 736">
  <defs>
    <filter id="Terms" x="37" y="690" width="65" height="42" filterUnits="userSpaceOnUse">
      <feOffset dy="3" input="SourceAlpha"/>
      <feGaussianBlur stdDeviation="3" result="blur"/>
      <feFlood flood-opacity="0.271"/>
      <feComposite operator="in" in2="blur"/>
      <feComposite in="SourceGraphic"/>
    </filter>
    <clipPath id="clip-TermCRUD">
      <rect width="414" height="736"/>
    </clipPath>
  </defs>
  <g id="TermCRUD" clip-path="url(#clip-TermCRUD)">
    <rect width="414" height="736" fill="#fff"/>
    <g id="Title_Bar" data-name="Title Bar" transform="translate(0 15)" fill="#fff" stroke="#707070" stroke-width="1">
      <rect width="414" height="60" stroke="none"/>
      <rect x="0.5" y="0.5" width="413" height="59" fill="none"/>
    </g>
    <g id="Rectangle_2" data-name="Rectangle 2" fill="#fff" stroke="#707070" stroke-width="1">
      <rect width="414" height="15" stroke="none"/>
      <rect x="0.5" y="0.5" width="413" height="14" fill="none"/>
    </g>
    <text id="New_Term_Id_Term" data-name="New / (Term Id) Term" transform="translate(65 51)" fill="#707070" font-size="20" font-family="Roboto-Regular, Roboto"><tspan x="0" y="0">New / (Term Id) Term</tspan></text>
    <g id="Rectangle_3" data-name="Rectangle 3" transform="translate(0 675)" fill="#fff" stroke="#707070" stroke-width="1">
      <rect width="414" height="61" stroke="none"/>
      <rect x="0.5" y="0.5" width="413" height="60" fill="none"/>
    </g>
    <g transform="matrix(1, 0, 0, 1, 0, 0)" filter="url(#Terms)">
      <text id="Terms-2" data-name="Terms" transform="translate(46 715)" fill="#707070" font-size="18" font-family="SegoeUI, Segoe UI"><tspan x="0" y="0">Terms</tspan></text>
    </g>
    <text id="Instructors" transform="translate(163 715)" fill="#707070" font-size="18" font-family="SegoeUI, Segoe UI"><tspan x="0" y="0">Instructors</tspan></text>
    <text id="Courses" transform="translate(318 715)" fill="#707070" font-size="18" font-family="SegoeUI, Segoe UI"><tspan x="0" y="0">Courses</tspan></text>
    <g id="Input" transform="translate(32.5 99)">
      <text id="Term_Title_Input" data-name="Term Title Input" transform="translate(0.5 19)" fill="#707070" font-size="18" font-family="Roboto-Regular, Roboto"><tspan x="0" y="0">Term Title Input</tspan></text>
      <line id="Input_Line" data-name="Input Line" y1="2" x2="344" transform="translate(0 23.5)" fill="none" stroke="#707070" stroke-width="1"/>
      <text id="Error_Message_if_any_" data-name="Error Message (if any)" transform="translate(0.5 45)" fill="red" font-size="12" font-family="Roboto-Regular, Roboto"><tspan x="0" y="0">Error Message (if any)</tspan></text>
    </g>
    <g id="Date_Input" data-name="Date Input" transform="translate(39 190)">
      <line id="Date_Input_Line" data-name="Date Input Line" x2="164" transform="translate(173.5 22.5)" fill="none" stroke="#707070" stroke-width="1"/>
      <text id="Date_Error_Message_if_any_" data-name="Date Error Message (if any)" transform="translate(0 46)" fill="red" font-size="12" font-family="Roboto-Regular, Roboto"><tspan x="0" y="0">Error Message (if any)</tspan></text>
      <text id="Date_Input-2" data-name="Date Input" transform="translate(188 17)" font-size="16" font-family="Roboto-Regular, Roboto"><tspan x="0" y="0">Date Input</tspan></text>
      <text id="Start_Date" data-name="Start Date" transform="translate(0 17)" font-size="14" font-family="Roboto-Regular, Roboto"><tspan x="0" y="0">Start Date</tspan></text>
    </g>
    <g id="Date_Input-3" data-name="Date Input" transform="translate(40.25 282)">
      <line id="Date_Input_Line-2" data-name="Date Input Line" x2="164" transform="translate(173.5 22.5)" fill="none" stroke="#707070" stroke-width="1"/>
      <text id="Date_Error_Message_if_any_2" data-name="Date Error Message (if any)" transform="translate(0 46)" fill="red" font-size="12" font-family="Roboto-Regular, Roboto"><tspan x="0" y="0">Error Message (if any)</tspan></text>
      <text id="Date_Input-4" data-name="Date Input" transform="translate(188 17)" font-size="16" font-family="Roboto-Regular, Roboto"><tspan x="0" y="0">Date Input</tspan></text>
      <text id="End_Date" data-name="End Date" transform="translate(0 17)" font-size="14" font-family="Roboto-Regular, Roboto"><tspan x="0" y="0">End Date</tspan></text>
    </g>
    <g id="Button" transform="translate(81 374)">
      <g id="Button_Outline" data-name="Button Outline" fill="#fff" stroke="#707070" stroke-linejoin="round" stroke-width="1">
        <rect width="96" height="40" rx="6" stroke="none"/>
        <rect x="0.5" y="0.5" width="95" height="39" rx="5.5" fill="none"/>
      </g>
      <text id="SAVE" transform="translate(31 26)" font-size="14" font-family="Roboto-Regular, Roboto"><tspan x="0" y="0">SAVE</tspan></text>
    </g>
    <g id="Button-2" data-name="Button" transform="translate(240 374)">
      <g id="Button_Outline-2" data-name="Button Outline" fill="#fff" stroke="#707070" stroke-linejoin="round" stroke-width="1">
        <rect width="96" height="40" rx="6" stroke="none"/>
        <rect x="0.5" y="0.5" width="95" height="39" rx="5.5" fill="none"/>
      </g>
      <text id="Delete" transform="translate(24 26)" font-size="14" font-family="Roboto-Regular, Roboto"><tspan x="0" y="0">DELETE</tspan></text>
    </g>
    <path id="back-button" d="M4.791,14.8l6.72-6.576L9.782,6.5,0,16l9.782,9.582,1.729-1.721-6.72-6.663H19.563V14.8Z" transform="translate(19.218 29.423)" fill-rule="evenodd"/>
  </g>
</svg>
